<?xml version="1.0" encoding="UTF-8" ?>
<!DOCTYPE svg PUBLIC "-//W3C//DTD SVG 1.1//EN" "http://www.w3.org/Graphics/SVG/1.1/DTD/svg11.dtd">
<svg width="112" height="75" xmlns="http://www.w3.org/2000/svg" xmlns:svg="http://www.w3.org/2000/svg">
   <path fill="#fefeff" d="m0.5,1.000482c0.5,0 0.5,0 3.63,0c2.87,9.21709 5.87,18.167908 8.87,27.282586c3.05,-9.083954 5.92,-18.208873 9.03,-27.251862c1.22,-0.010241 2.45,-0.030724 3.67,-0.051206c-3.59,10.343623 -6.97,20.769176 -10.64,31.082075l-3.73429,-0.028235l-10.84571,-31.043599l0.02,0.010241z" id="svg_2"/>
  <path fill="#fefeff" d="m29.22572,3.670756c1.157957,-1.716873 3.697008,0.057589 2.604699,1.725399c-1.092297,1.66781 -3.762645,-0.008526 -2.604699,-1.725399z" id="svg_3"/>
  <path fill="#fefeff" d="m40.99,8.95c3.83,-1.79 8.18,-0.66 12.15,0.03c-0.16,0.7 -0.47,2.11 -0.63,2.81c-3.4,-0.61 -7.66,-2.54 -10.59,0.17c-1.67,1.11 -0.91,3.64 0.64,4.46c2.84,1.66 6.15,2.34 8.91,4.14c3.62,2.28 3.39,8.56 -0.55,10.41c-4.49,2.02 -9.62,0.78 -14.16,-0.44c0.32,-0.94 0.68,-1.86 1.06,-2.77c3.53,0.97 7.35,2.53 10.99,1.13c2,-0.8 3,-3.54 1.38,-5.2c-2.86,-2.42 -6.79,-2.92 -9.85,-5c-3.48,-2.11 -3.11,-8.11 0.65,-9.74z" id="svg_4"/>
  <path fill="#fefeff" d="m58.48145,9.58823c4.71,-0.7011 9.76855,-2.00488 14.11855,0.34956c4,-1.62195 8.57,-2.86718 12.74,-1.16152c2.8,1.24523 4.34,4.35309 4.5,7.41909c0.39,5.2844 0.08,10.58973 0.16,15.8846c-0.75,-0.01047 -2.25,-0.0314 -3,-0.04186c-0.29,-5.95411 0.8,-12.13843 -0.92,-17.91465c-2.09,-4.7298 -7.9,-3.00321 -11.64,-1.9568c0.81,6.60289 0.56,13.2581 0.54,19.89238c-0.75,0 -2.23,-0.01047 -2.98,-0.01047c-0.05,-4.60423 0.14,-9.20846 -0.07,-13.80223c-0.17,-2.08237 -0.46,-4.42634 -2,-5.92271c-2.56,-1.96727 -5.91,-1.23477 -8.87,-1.26617c-0.12,7.00053 -0.02,14.00105 -0.07,20.99111c-0.75,0 -2.23,0 -2.98,0l-0.02957,-19.34928c0.05785,-2.71163 0.3942,-2.80135 0.50102,-3.11105z" id="svg_5"/>
  <path fill="#fefeff" d="m29.01,8.076358c0.75,-0.010922 2.24,-0.032766 2.99,-0.043688c-0.01,8.005762 0.02,16.011525 -0.01,24.017287c-0.75,0 -2.23,0 -2.98,0c-0.02,-7.99484 -0.02,-15.978759 0,-23.9736z" id="svg_7"/>
  <path fill="#fefeff" d="m23.36,51.51c3.84,-1.3 7.88,0.02 11.43,1.58l-0.56295,2.29533c-3.78329,-1.54765 -9.37301,-3.89073 -12.14705,0.74467c-2.7,4.02 -2.86,9.88 -0.28,13.99c2.7,3.71 7.65,1.83 11.32,1.08c0.27,0.83 0.54,1.67 0.81,2.5c-1.6,0.45 -3.2,0.9 -4.81,1.3l-3.8,0c-2.31,-0.43 -4.81,-1.13 -6.23,-3.17c-2.23,-3.13 -2.27,-7.23 -1.99,-10.91c0.28,-3.9 2.38,-8.05 6.26,-9.41z" id="svg_9"/>
  <path fill="#fefeff" d="m39.17,51.88c4.01,-0.52 8.25,-1.59 12.18,-0.17c2.17,0.8 3.41,3.03 3.51,5.26c0.4,5.55 0.08,11.12 0.11,16.67c-1.69,0.48 -3.37,0.95 -5.07,1.36l-5.24,0c-2.36,-0.39 -5.14,-0.79 -6.58,-2.94c-2.2,-3.63 -1.25,-9.47 3,-11.15c3.56,-1.3 7.44,-0.84 11.15,-1.01c-0.34,-1.8 0.41627,-3.76894 -1.69945,-5.39c-2.11572,-1.62106 -6.83004,-0.94543 -10.73004,-0.18543c-0.04,-0.7 -0.58051,-1.74457 -0.63051,-2.44457z" id="svg_10"/>
  <path fill="#fefeff" d="m62.97,51.95c3.84,-1.77 8.19,-0.58 12.19,-0.07c-0.16,0.7 -0.48,2.11 -0.63,2.82c-3.42,-0.44 -7.65,-2.4 -10.58,0.26c-1.5,0.83 -1.01,2.27 -0.45,3.53c3.04,2.62 7.31,3.08 10.48,5.51c2.25,1.72 2.52,5.09 1.42,7.55c-1.08,2.16 -3.62,2.81 -5.75,3.45l-3.63,0c-2.46,-0.3 -4.87,-0.85 -7.29,-1.39c0.34,-0.91 0.68,-1.82 1.03,-2.72c3.33,0.73 6.76,2.05 10.21,1.29c2.35,-0.38 4.17,-3.52 2.22,-5.4c-3.03,-2.6 -7.28,-3.12 -10.41,-5.57c-2.94,-2.34 -2.26,-7.72 1.19,-9.26z" id="svg_11"/>
  <path fill="#fefeff" d="m80.51,55.6c2.41,-4.78 8.95,-5.76 13.41,-3.48c3.71,2.03 4.54492,5.1456 4.11034,11.57102l-16.1919,0.00753c-0.34616,3.14106 0.97156,6.09145 3.74156,7.65145c2.97,1.62 6.39,0.27 9.48,-0.23c0.35,0.87 0.7,1.74 1.06,2.61c-1.88,0.41 -3.76,0.86 -5.64,1.27l-3.11,0c-2.76,-0.54 -5.79,-1.71 -6.93,-4.53c-2.01,-4.62 -2.1,-10.29 0.07,-14.87z" id="svg_12"/>
  <path fill="#1e88e5" d="m84.91141,54.82189c3.48187,-1.79565 5.2593,-1.5686 8.03859,0.19811c2.77929,1.76671 2.41576,3.78329 2.43,5.92l-13.48,-0.09c-0.00576,-0.04506 -0.47047,-4.23247 3.01141,-6.02811z" id="svg_13"/>
  <path fill="#1e88e5" d="m42.5,63.56c3.02,-1.17 6.36,-0.68 9.54,-0.81c-0.07,2.97 0.13,5.96 -0.3,8.91c-3.05,0.75 -6.44,1.31 -9.44,0.05c-3.2,-1.49 -2.96,-6.72 0.2,-8.15z" id="svg_14"/>
  <path id="svg_6" fill="#fefeff" d="m96.01388,9.53667c4.01,-0.52 8.25,-1.59 12.18,-0.17c2.17,0.8 3.41,3.03 3.51,5.26c0.4,5.55 0.08,11.12 0.11,16.67c-1.69,0.48 -3.37,0.95 -5.07,1.36l-5.24,0c-2.36,-0.39 -5.14,-0.79 -6.58,-2.94c-2.2,-3.63 -1.25,-9.47 3,-11.15c3.56,-1.3 7.44,-0.84 11.15,-1.01c-0.34,-1.8 0.41627,-3.76894 -1.69945,-5.39c-2.11572,-1.62106 -6.90512,-0.57 -10.80512,0.19c-0.04,-0.7 -0.50543,-2.12 -0.55543,-2.82z"/>
  <path id="svg_8" fill="#1e88e5" d="m99.516468,21.120246c3.02,-1.17 6.36,-0.68 9.54,-0.81c-0.07,2.97 0.13,5.96 -0.3,8.91c-3.05,0.75 -6.44,1.31 -9.44,0.05c-3.2,-1.49 -2.96,-6.72 0.2,-8.15z"/>
 
</svg>
